<svg xmlns="http://www.w3.org/2000/svg" viewBox="0 0 64 64" width="64" height="64">
  <defs>
    <linearGradient id="carBody3D" x1="0%" y1="0%" x2="100%" y2="100%">
      <stop offset="0%" style="stop-color:#34d399"/>
      <stop offset="50%" style="stop-color:#10b981"/>
      <stop offset="100%" style="stop-color:#047857"/>
    </linearGradient>
    
    <linearGradient id="carTop" x1="0%" y1="0%" x2="0%" y2="100%">
      <stop offset="0%" style="stop-color:#6ee7b7"/>
      <stop offset="100%" style="stop-color:#10b981"/>
    </linearGradient>
    
    <linearGradient id="windshield3D" x1="0%" y1="0%" x2="100%" y2="100%">
      <stop offset="0%" style="stop-color:#ecfdf5"/>
      <stop offset="50%" style="stop-color:#a7f3d0"/>
      <stop offset="100%" style="stop-color:#6ee7b7"/>
    </linearGradient>
    
    <linearGradient id="headlightGlow" x1="0%" y1="0%" x2="0%" y2="100%">
      <stop offset="0%" style="stop-color:#fef3c7"/>
      <stop offset="50%" style="stop-color:#fde68a"/>
      <stop offset="100%" style="stop-color:#fbbf24"/>
    </linearGradient>
    
    <filter id="glow3D" x="-50%" y="-50%" width="200%" height="200%">
      <feGaussianBlur stdDeviation="2" result="blur"/>
      <feFlood flood-color="#fef3c7" flood-opacity="0.8"/>
      <feComposite in2="blur" operator="in"/>
      <feMerge>
        <feMergeNode/>
        <feMergeNode in="SourceGraphic"/>
      </feMerge>
    </filter>
    
    <filter id="shadow3D">
      <feDropShadow dx="2" dy="3" stdDeviation="2" flood-color="#022c22" flood-opacity="0.5"/>
    </filter>
    
    <linearGradient id="wheel3D" x1="0%" y1="0%" x2="100%" y2="100%">
      <stop offset="0%" style="stop-color:#1f2937"/>
      <stop offset="50%" style="stop-color:#111827"/>
      <stop offset="100%" style="stop-color:#030712"/>
    </linearGradient>
    
    <radialGradient id="rim3D">
      <stop offset="0%" style="stop-color:#10b981"/>
      <stop offset="70%" style="stop-color:#059669"/>
      <stop offset="100%" style="stop-color:#047857"/>
    </radialGradient>
  </defs>
  
  <rect width="64" height="64" fill="transparent" rx="12"/>
  
  <g filter="url(#shadow3D)">
    <path d="M6 38 L8 26 Q10 18 18 16 L28 13 Q32 11 36 13 L46 16 Q54 18 56 26 L58 38 Q60 44 56 46 L52 46 L52 50 Q52 52 50 52 L48 52 Q46 52 46 50 L46 46 L18 46 L18 50 Q18 52 16 52 L14 52 Q12 52 12 50 L12 46 L8 46 Q4 44 6 38 Z" fill="url(#carBody3D)"/>
    
    <path d="M22 24 L32 20 Q34 19 36 20 L46 24 L44 28 L24 28 Z" fill="url(#carTop)" stroke="#047857" stroke-width="0.5"/>
    
    <path d="M20 24 L30 20 Q32 19 34 20 L44 24 L42 28 L22 28 Z" fill="url(#windshield3D)" opacity="0.9"/>
    
    <ellipse cx="14" cy="34" rx="7" ry="5" fill="url(#headlightGlow)" filter="url(#glow3D)"/>
    <ellipse cx="14" cy="34" rx="4" ry="3" fill="#fef9c3"/>
    <ellipse cx="14" cy="33" rx="2" ry="1.5" fill="#ffffff" opacity="0.9"/>
    
    <ellipse cx="50" cy="34" rx="7" ry="5" fill="url(#headlightGlow)" filter="url(#glow3D)"/>
    <ellipse cx="50" cy="34" rx="4" ry="3" fill="#fef9c3"/>
    <ellipse cx="50" cy="33" rx="2" ry="1.5" fill="#ffffff" opacity="0.9"/>
    
    <circle cx="16" cy="50" r="7" fill="url(#wheel3D)" stroke="#047857" stroke-width="1"/>
    <circle cx="16" cy="50" r="5" fill="#0f172a"/>
    <circle cx="16" cy="50" r="3" fill="url(#rim3D)"/>
    
    <circle cx="48" cy="50" r="7" fill="url(#wheel3D)" stroke="#047857" stroke-width="1"/>
    <circle cx="48" cy="50" r="5" fill="#0f172a"/>
    <circle cx="48" cy="50" r="3" fill="url(#rim3D)"/>
    
    <path d="M6 38 L10 26 L54 26 L58 38" fill="none" stroke="#059669" stroke-width="1" opacity="0.5"/>
    
    <path d="M8 42 L12 42" stroke="#047857" stroke-width="2" stroke-linecap="round" opacity="0.6"/>
    <path d="M52 42 L56 42" stroke="#047857" stroke-width="2" stroke-linecap="round" opacity="0.6"/>
  </g>
</svg>